<svg version="1.1" xmlns="http://www.w3.org/2000/svg" xmlns:xlink="http://www.w3.org/1999/xlink" x="0px" y="0px" width="256px" height="256px" viewBox="0 0 256 256" style="enable-background:new 0 0 256 256;" xml:space="preserve">
	<g>
		<path fill="#fafafa" d="M226,14H30c-8.837,0-16,7.164-16,16v196c0,8.837,7.163,16,16,16h196c8.836,0,16-7.163,16-16V30C242,21.164,234.836,14,226,14z" />
    <g stroke="null">
      <path fill="#4285f4" d="M69.91543364524841,181.00850827825798 L91.31501054763794,181.00850827825798 L91.31501054763794,126.40776069296135 L60.74418640136719,102.31919558180107 L60.74418640136719,171.37308223379387 C60.74418640136719,176.704684645064 64.8559622490406,181.00850827825798 69.91543364524841,181.00850827825798 " stroke="null" />
      <path fill="#34a853" d="M164.68498849868774,181.00850827825798 L186.08456540107727,181.00850827825798 C191.1593222093582,181.00850827825798 195.2558126449585,176.68862560165658 195.2558126449585,171.37308223379387 L195.2558126449585,102.31919558180107 L164.68498849868774,126.40776069296135 " stroke="null" />
      <path fill="#fbbc04" d="M164.68498849868774,84.65424783361686 L164.68498849868774,126.40776069296135 L195.2558126449585,102.31919558180107 L195.2558126449585,89.47196085584892 C195.2558126449585,77.55615064752831 182.30906861901283,70.76317528618108 173.24481925964355,77.90944960249197 " stroke="null" />
      <path fill="#ea4335" d="M91.31501054763794,126.40776069296135 L91.31501054763794,84.65424783361686 L127.99999952316284,113.5605259670092 L164.68498849868774,84.65424783361686 L164.68498849868774,126.40776069296135 L127.99999952316284,155.31403882635368 " stroke="null" />
      <path fill="#c5221f" d="M60.74418640136719,89.47196085584892 L60.74418640136719,102.31919558180107 L91.31501054763794,126.40776069296135 L91.31501054763794,84.65424783361686 L82.75517978668213,77.90944960249197 C73.67564501523972,70.76317528618108 60.74418640136719,77.55615064752831 60.74418640136719,89.47196085584892 " stroke="null" />
    </g>
	</g>
</svg>
