<svg version="1.1" xmlns="http://www.w3.org/2000/svg" xmlns:xlink="http://www.w3.org/1999/xlink" x="0px" y="0px" width="256px" height="256px" viewBox="0 0 256 256" style="enable-background:new 0 0 256 256;" xml:space="preserve">
  <defs>
		<linearGradient id="b">
			<stop offset="0" stop-color="#3771c8"/>
			<stop stop-color="#3771c8" offset=".128"/>
			<stop offset="1" stop-color="#60f" stop-opacity="0"/>
		</linearGradient>
		<linearGradient id="a">
			<stop offset="0" stop-color="#fd5"/>
			<stop offset=".1" stop-color="#fd5"/>
			<stop offset=".5" stop-color="#ff543e"/>
			<stop offset="1" stop-color="#c837ab"/>
		</linearGradient>
		<radialGradient id="c" cx="258.429" cy="578.088" r="165" xlink:href="#a" gradientUnits="userSpaceOnUse" gradientTransform="matrix(0 -1.98198 1.8439 0 -1031.402 454.004)" fx="158.429" fy="578.088"/>
		<radialGradient id="d" cx="147.694" cy="473.455" r="105" xlink:href="#b" gradientUnits="userSpaceOnUse" gradientTransform="matrix(.17394 .86872 -3.5818 .71718 1648.348 -458.493)" fx="147.694" fy="473.455"/>
	</defs>
  <g>
		<path fill="#d62976" d="M226,14H30c-8.837,0-16,7.164-16,16v196c0,8.837,7.163,16,16,16h196c8.836,0,16-7.163,16-16V30C242,21.164,234.836,14,226,14z" />
		<path fill="#d62976" d="M226,14H30c-8.837,0-16,7.164-16,16v196c0,8.837,7.163,16,16,16h196c8.836,0,16-7.163,16-16V30C242,21.164,234.836,14,226,14z" />
    <path fill="#fff" d="M128.27958744037372,68.23485802580764 C111.46642228259056,68.23485802580764 109.35639327076686,68.30613472917602 102.75287949293242,68.59749388505028 C96.16226320294533,68.89010350940471 91.6636194417956,69.90173250984365 87.72730615078959,71.38603859577819 C83.65556923738659,72.91911295243848 80.20162199187085,74.96988125987964 76.76057223420241,78.30738163339214 C73.31694297896452,81.64363153842444 71.20175497200192,84.99238612825823 69.61536396678,88.93886465160233 C68.08056291294737,92.75654492149127 67.03586639731341,97.11942944872432 66.73922417682475,103.50682244531545 C66.44387170512081,109.90922106366833 66.36648677803682,111.95623796566906 66.36648677803682,128.257345072866 S66.44129220755134,146.59796627118274 66.74051392560946,153.00036488953566 C67.0436048900218,159.39025882308704 68.08701165687104,163.75189288183998 69.61665371556471,167.56832268324877 C71.19917547443247,171.516051675073 73.31436348139506,174.86480626490678 76.7567029878482,178.20105616993914 C80.19646299673191,181.53980701193177 83.65041024224764,183.59557719329354 87.71956765808117,185.1286515499538 C91.65846044665666,186.6129576358883 96.15839395659111,187.6245866363273 102.7477204977935,187.91719626068166 C109.35123427562796,188.20855541655592 111.45997353866686,188.27983211992435 128.27184894766535,188.27983211992435 C145.08630385423325,188.27983211992435 147.18988412213324,188.20855541655592 153.7933978999677,187.91719626068166 C160.38401418995483,187.6245866363273 164.88781694624348,186.6129576358883 168.82670973481893,185.1286515499538 C172.89715689943725,183.59557719329354 176.345945149814,181.53980701193177 179.7857051586977,178.20105616993914 C183.22933441393556,174.86480626490678 185.3445224208982,171.516051675073 186.93091342612013,167.56957315172892 C188.45281699210543,163.75189288183998 189.4975135077394,159.38900835460694 189.8070532160754,153.0016153580158 C190.10369543656404,146.5992167396629 190.18108036364802,144.55845218006291 190.18108036364802,128.257345072866 C190.18108036364802,111.95623796566906 190.10369543656404,109.91047153214848 189.8070532160754,103.50807291379559 C189.4975135077394,97.11817898024418 188.45281699210543,92.75654492149127 186.93091342612013,88.94011512008247 C185.3445224208982,84.99238612825823 183.22933441393556,81.64363153842444 179.7857051586977,78.30738163339214 C176.34207590345983,74.9686307913995 172.89844664822192,72.91786248395834 168.82284048846472,71.38603859577819 C164.8762092071809,69.90173250984365 160.3749859484617,68.89010350940471 153.78436965847456,68.59749388505028 C147.1808558806401,68.30613472917602 145.07856536152485,68.23485802580764 128.26024120860274,68.23485802580764 L128.27958744037372,68.23485802580764 zM122.72592917331218,79.05141037907961 C124.37422812020134,79.04890944211932 126.213409887231,79.05141037907961 128.27958744037372,79.05141037907961 C144.80900786551558,79.05141037907961 146.76813626952546,79.10893192916637 153.29555486906065,79.39653967960021 C159.33157918161243,79.66413993435168 162.607541094835,80.64200628582665 164.78979603860375,81.46356407728328 C167.67883331640633,82.5514716550112 169.73856212562538,83.85195887436414 171.90405033519258,85.95274592101117 C174.07082829354448,88.05353296765821 175.4121670296671,90.05428253589349 176.53682796995457,92.85533193142288 C177.38419292152435,94.9686236628714 178.3940662199705,98.1448136024449 178.66878271111867,103.99700608953309 C178.96542493160732,110.32437659907714 179.02991237084402,112.22508868890068 179.02991237084402,128.24358991958437 S178.96542493160732,146.1628032400916 178.66878271111867,152.4901737496357 C178.39277647118573,158.34236623672382 177.38419292152435,161.51855617629732 176.53682796995457,163.63184790774585 C175.4147465272366,166.43289730327524 174.07082829354448,168.4273945291098 171.90405033519258,170.52693110727668 C169.73727237684062,172.62771815392372 167.68012306519103,173.92820537327665 164.78979603860375,175.0161129510046 C162.61012059240448,175.84142214790162 159.33157918161243,176.81678756241635 153.29555486906065,177.08438781716782 C146.76942601831018,177.37199556760163 144.80900786551558,177.43451899160897 128.27958744037372,177.43451899160897 C111.74887726644715,177.43451899160897 109.78974886243728,177.37199556760163 103.26362001168681,177.08438781716782 C97.22759569913501,176.81428662545608 93.95163378591245,175.83642027398108 91.76808909335897,175.01486248252445 C88.87905181555642,173.92695490479647 86.81545375998313,172.62646768544357 84.64867580163123,170.52568063879656 C82.4818978432793,168.4248935921495 81.14055910715668,166.42914589783481 80.01589816686925,163.62684603382527 C79.16853321529948,161.51355430237675 78.15865991685331,158.33736436280327 77.88394342570513,152.48517187571505 C77.58730120521645,146.15780136617101 77.52797276111872,144.2570892763475 77.52797276111872,128.22858429782264 S77.58730120521645,110.30937097731537 77.88394342570513,103.98200046777134 C78.15994966563804,98.12980798068314 79.16853321529948,94.95361804110964 80.01589816686925,92.83782537270083 C81.1379796095872,90.03677597717144 82.4818978432793,88.03602640893617 84.64867580163123,85.93523936228912 C86.81545375998313,83.83445231564208 88.87905181555642,82.53396509628915 91.76808909335897,81.44355658160093 C93.95034403712772,80.61824738470386 97.22759569913501,79.64288197018917 103.26362001168681,79.37403124695756 C108.97462763048583,79.12393755092813 111.18783654508816,79.04890944211932 122.72592917331218,79.03640475731785 L122.72592917331218,79.05141037907961 zM161.3255308028101,89.01764416585159 C157.22412966735826,89.01764416585159 153.89657780274632,92.24010143919054 153.89657780274632,96.21784167453829 C153.89657780274632,100.19433144140591 157.22412966735826,103.42054012018531 161.3255308028101,103.42054012018531 C165.42693193826196,103.42054012018531 168.75448380287386,100.19433144140591 168.75448380287386,96.21784167453829 C168.75448380287386,92.2413519076707 165.42693193826196,89.0151432288913 161.3255308028101,89.0151432288913 L161.3255308028101,89.01764416585159 zM128.27958744037372,97.43329703724123 C110.7222372337994,97.43329703724123 96.4872798966981,111.23471765262423 96.4872798966981,128.257345072866 C96.4872798966981,145.27997249310775 110.7222372337994,159.07514076609 128.27958744037372,159.07514076609 C145.83693764694803,159.07514076609 160.0667359889104,145.27997249310775 160.0667359889104,128.257345072866 S145.83564789816327,97.43329703724123 128.278297691589,97.43329703724123 L128.27958744037372,97.43329703724123 zM128.27958744037372,108.2498493905132 C139.6758077022771,108.2498493905132 148.9155679961064,117.20695511380652 148.9155679961064,128.257345072866 C148.9155679961064,139.3064845634453 139.6758077022771,148.26484075521878 128.27958744037372,148.26484075521878 C116.88207742968564,148.26484075521878 107.64360688464106,139.3064845634453 107.64360688464106,128.257345072866 C107.64360688464106,117.20695511380652 116.88207742968564,108.2498493905132 128.27958744037372,108.2498493905132 z" stroke="null"></path>
	</g>
</svg>