<svg version="1.1" xmlns="http://www.w3.org/2000/svg" xmlns:xlink="http://www.w3.org/1999/xlink" x="0px" y="0px" width="256px" height="256px" viewBox="0 0 256 256" style="enable-background:new 0 0 256 256;" xml:space="preserve">
	<g>
    <path fill="#0072b1" d="M226,14H30c-8.837,0-16,7.164-16,16v196c0,8.837,7.163,16,16,16h196c8.836,0,16-7.163,16-16V30C242,21.164,234.836,14,226,14z"/>
    <g>
    <path fill="#fafafa" d="M94.50356091055545,107.05384445497327 L69.33958081720046,107.05384445497327 C68.2227631639,107.05384445497327 67.31782547089263,107.90237798311409 67.31782547089263,108.94873844367544 L67.31782547089263,184.71721151832418 C67.31782547089263,185.76395095768322 68.2227631639,186.6121055070263 69.33958081720046,186.6121055070263 L94.50356091055545,186.6121055070263 C95.6203785638559,186.6121055070263 96.52531625686328,185.76395095768322 96.52531625686328,184.71721151832418 L96.52531625686328,108.94873844367544 C96.52531625686328,107.90237798311409 95.6203785638559,107.05384445497327 94.50356091055545,107.05384445497327 z" />
    <path fill="#fafafa" d="M81.93066876293634,69.38752072634966 C72.77454315057744,69.38752072634966 65.3255877526409,76.36148856236906 65.3255877526409,84.93360998845986 C65.3255877526409,93.50952120252805 72.77454315057744,100.48614189013162 81.93066876293634,100.48614189013162 C91.07951605604852,100.48614189013162 98.52240618794616,93.50914222373032 98.52240618794616,84.93360998845986 C98.52281053901541,76.36148856236906 91.07951605604852,69.38752072634966 81.93066876293634,69.38752072634966 z" />
    <path fill="#fafafa" d="M158.5099090682457,105.17069880900107 C148.4031540920529,105.17069880900107 140.93195938530695,109.242825990722 136.4003969520926,113.86977813233494 L136.4003969520926,108.94873844367544 C136.4003969520926,107.90237798311409 135.49545925908518,107.05384445497327 134.37864160578476,107.05384445497327 L110.2797222288647,107.05384445497327 C109.16290457556426,107.05384445497327 108.25796688255687,107.90237798311409 108.25796688255687,108.94873844367544 L108.25796688255687,184.71721151832418 C108.25796688255687,185.76395095768322 109.16290457556426,186.6121055070263 110.2797222288647,186.6121055070263 L135.38871057680012,186.6121055070263 C136.50552823010057,186.6121055070263 137.41046592310795,185.76395095768322 137.41046592310795,184.71721151832418 L137.41046592310795,147.22938680343628 C137.41046592310795,134.5968865383545 141.07146050420215,129.67546787089728 150.46696194956388,129.67546787089728 C160.69947010829708,129.67546787089728 161.5126201085821,137.56504848225757 161.5126201085821,147.87933544156112 L161.5126201085821,184.7175904971219 C161.5126201085821,185.764329936481 162.41755780158948,186.61248448582404 163.53437545488993,186.61248448582404 L188.65266387741838,186.61248448582404 C189.76948153071882,186.61248448582404 190.6744192237262,185.764329936481 190.6744192237262,184.7175904971219 L190.6744192237262,143.15725962171535 C190.6744192237262,124.37317551171094 186.85289726813514,105.17069880900107 158.5099090682457,105.17069880900107 z" />
    </g>
	</g>
</svg>
