<svg version="1.1" xmlns="http://www.w3.org/2000/svg" xmlns:xlink="http://www.w3.org/1999/xlink" x="0px" y="0px" width="256px" height="256px" viewBox="0 0 256 256" style="enable-background:new 0 0 256 256;" xml:space="preserve">
	<g>
		<path fill="#1ED760" d="M226,14H30c-8.837,0-16,7.164-16,16v196c0,8.837,7.163,16,16,16h196c8.836,0,16-7.163,16-16V30C242,21.164,234.836,14,226,14z" />
    <path fill="#fafafa" d="M127.99950189208984,44.25849871826172 C81.75050189208984,44.25849871826172 44.256501892089844,81.75149871826173 44.256501892089844,128.00049871826172 C44.256501892089844,174.25149871826173 81.75050189208984,211.7414987182617 127.99950189208984,211.7414987182617 C174.25350189208984,211.7414987182617 211.74350189208985,174.25149871826173 211.74350189208985,128.00049871826172 C211.74350189208985,81.75449871826171 174.25350189208984,44.26249871826172 127.99850189208985,44.26249871826172 L127.99950189208984,44.25849871826172 zM166.40350189208985,165.03849871826174 C164.90350189208985,167.49849871826171 161.68350189208985,168.27849871826172 159.22350189208984,166.76849871826172 C139.56150189208984,154.7584987182617 114.80950189208984,152.03849871826174 85.65950189208985,158.6984987182617 C82.85050189208985,159.33849871826172 80.05050189208984,157.5784987182617 79.41050189208984,154.76849871826172 C78.76750189208985,151.95849871826172 80.52050189208984,149.15849871826174 83.33650189208984,148.51849871826172 C115.23650189208985,141.2274987182617 142.59950189208985,144.36849871826172 164.67350189208986,157.85849871826173 C167.13350189208984,159.36849871826172 167.91350189208984,162.5784987182617 166.40350189208985,165.03849871826174 zM176.65350189208985,142.23349871826173 C174.76350189208983,145.30849871826172 170.74350189208985,146.27849871826172 167.67350189208986,144.3884987182617 C145.16350189208984,130.5494987182617 110.85050189208984,126.54249871826173 84.22550189208985,134.62449871826172 C80.77250189208985,135.66749871826173 77.12550189208984,133.72149871826173 76.07750189208984,130.27449871826173 C75.03750189208984,126.82149871826172 76.98450189208984,123.18149871826172 80.43150189208984,122.13149871826172 C110.84450189208984,112.90349871826172 148.65350189208985,117.37349871826171 174.50350189208984,133.2584987182617 C177.57350189208984,135.14849871826172 178.54350189208984,139.16849871826173 176.65350189208985,142.2344987182617 L176.65350189208985,142.23349871826173 zM177.53350189208984,118.48949871826171 C150.54350189208986,102.45849871826172 106.01350189208983,100.98449871826172 80.24450189208984,108.80549871826172 C76.10650189208985,110.06049871826171 71.73050189208985,107.72449871826171 70.47650189208984,103.58649871826171 C69.22250189208984,99.44649871826172 71.55650189208984,95.07349871826172 75.69750189208985,93.81549871826172 C105.27850189208985,84.83549871826172 154.45350189208983,86.57049871826172 185.52750189208984,105.01749871826172 C189.25750189208983,107.22649871826172 190.47750189208983,112.03349871826173 188.26750189208985,115.75049871826172 C186.06750189208984,119.47249871826172 181.24750189208984,120.69949871826172 177.53750189208984,118.48949871826171 L177.53350189208984,118.48949871826171 z" />
	</g>
</svg>

