<svg xmlns="http://www.w3.org/2000/svg" xmlns:xlink="http://www.w3.org/1999/xlink" version="1.1" x="136.5" y="185.5" width="256" height="256" viewBox="0 0 256 256" xml:space="preserve" id="svgcontent">
  <g>
    <path fill="#2aa9e0" d="M226,14L30,14C21.163,14 14,21.164 14,30L14,226C14,234.837 21.163,242 30,242L226,242C234.836,242 242,234.837 242,226L242,30C242,21.164 234.836,14 226,14z" id="svg_2"></path>
    <g>
      <path fill="#fafafa" d="M197.89066664163914,86.38999733836152 C192.74809823210876,88.57958965979493 187.22043827340508,90.05877330270013 181.42020107982756,90.72423970643926 C187.34065458169326,87.3177482658827 191.88844159936295,81.92359573785792 194.02919656555096,75.49569266118196 C188.48755891405312,78.65060905997323 182.35044709874856,80.94082670440262 175.81776250223956,82.17516295677294 C170.58713055297676,76.82527993841417 163.13398024737367,73.4831940241132 154.88547069587798,73.4831940241132 C139.0482231435465,73.4831940241132 126.20718980718155,85.80703853639787 126.20718980718155,101.00808826296353 C126.20718980718155,103.16548173269427 126.46089104408958,105.26652721194534 126.95012659240228,107.281036321533 C103.11596795887041,106.1332442616764 81.98519291483144,95.17453405824128 67.84069693655357,78.5211408880396 C65.37215488651924,82.5863789039552 63.95756347419898,87.31440008596803 63.95756347419898,92.35905895542427 C63.95756347419898,101.90901463691608 69.02045495967342,110.33398968993251 76.71542342574494,115.26996570061685 C72.01457455928532,115.12708134047375 67.5925867767632,113.88872414306573 63.726226545761634,111.8272622861702 C63.722966442486005,111.94196873964837 63.722966442486005,112.05734795824958 63.722966442486005,112.17340776482406 C63.722966442486005,125.5095447474751 73.60832494711676,136.63394291958426 86.72751844521507,139.16432206723806 C84.32117916567942,139.79356085138653 81.78763880658762,140.12964614459594 79.17231875682712,140.12964614459594 C77.32441071762906,140.12964614459594 75.52822421689852,139.956573405269 73.77675818285118,139.6359147727879 C77.42645195015568,150.57114077971883 88.01700339433377,158.52921683734615 100.56659164811735,158.75058785422704 C90.75183067991993,166.1337626456667 78.38675612127778,170.53442101251883 64.95024862110608,170.53442101251883 C62.635461191807764,170.53442101251883 60.35283468132336,170.40360731033914 58.1093375604045,170.14935685378222 C70.80080550874261,177.9598548411056 85.87484658373724,182.5168137563104 102.06993937211612,182.5168137563104 C154.81860597769523,182.5168137563104 183.66462733018,140.5744142965772 183.66462733018,104.19923228134543 C183.66462733018,103.00582518157677 183.63667194459165,101.81912226448767 183.5814620956192,100.63779364553265 C189.1839006732072,96.75769902690732 194.0455052321872,91.91026203555504 197.89020207692232,86.38999733836152 L197.89066664163914,86.38999733836152 z" />
    </g>
  </g>
</svg>
