<svg version="1.1" xmlns="http://www.w3.org/2000/svg" xmlns:xlink="http://www.w3.org/1999/xlink" x="0px" y="0px" width="256px" height="256px" viewBox="0 0 256 256" style="enable-background:new 0 0 256 256;" xml:space="preserve">
	<g>
		<path fill="#23b33a" d="M226,14H30c-8.837,0-16,7.164-16,16v196c0,8.837,7.163,16,16,16h196c8.836,0,16-7.163,16-16V30C242,21.164,234.836,14,226,14z" />
    <g>
    <path fill="#ffffff" d="M54.11373292480469,202.21769520996094 L64.55237292480469,164.10390520996094 C58.11418292480469,152.95007520996094 54.72696292480469,140.29554520996095 54.731092924804685,127.33233520996093 C54.747592924804685,86.77667520996093 87.75165292480469,53.78230520996094 128.3086929248047,53.78230520996094 C147.9898329248047,53.79190520996094 166.46242292480468,61.45108520996094 180.3558129248047,75.35411520996094 C194.2450629248047,89.25714520996094 201.8931629248047,107.73663520996094 201.8862729248047,127.39159520996094 C201.86837292480467,167.94450520996094 168.8588329248047,200.94438520996093 128.3086929248047,200.94438520996093 C128.3056929248047,200.94438520996093 128.31169292480467,200.94438520996093 128.3086929248047,200.94438520996093 L128.2769929248047,200.94438520996093 C115.96421292480468,200.93938520996093 103.8650429248047,197.85068520996094 93.1177229248047,191.98989520996093 L54.11373292480469,202.21769520996094 z" id="svg_10" stroke-width="0.352777" fill-rule="nonzero" />
    <path fill="#23b33a" d="M128.02426467651367,66.8424976147461 C94.29128467651367,66.8424976147461 66.85849467651367,94.26579761474609 66.84609467651367,127.9726076147461 C66.84109467651368,139.5233276147461 70.07362467651367,150.7736276147461 76.19487467651368,160.5080876147461 L77.65008467651367,162.8200976147461 L71.47061467651368,185.3789276147461 L94.61649467651367,179.31004761474608 L96.85149467651368,180.6339976147461 C106.23869467651367,186.2054076147461 117.00117467651367,189.1519976147461 127.97724467651368,189.1575076147461 L128.00054467651367,189.1575076147461 C161.7073646765137,189.1575076147461 189.14013467651367,161.73179761474609 189.15391467651366,128.0222176147461 C189.15991467651367,111.68695761474609 182.80547467651368,96.32596761474609 171.25888467651367,84.77111761474609 C159.71233467651368,73.2162676147461 144.3595846765137,66.84938761474609 128.02431467651365,66.8424976147461 L128.02426467651367,66.8424976147461 z" id="svg_9" stroke-width="0.352777" />
    <path fill="#ffffff" d="M109.63701846435546,96.56984049804686 C108.25898846435547,93.50922049804689 106.80928846435546,93.44721049804687 105.50015846435548,93.39347049804687 C104.42803846435547,93.34799049804687 103.20158846435547,93.35075049804686 101.97650846435548,93.35075049804686 C100.75005846435548,93.35075049804686 98.75878846435546,93.81101049804687 97.07482846435548,95.65069049804688 C95.38948846435545,97.49037049804687 90.63938846435548,101.93730049804688 90.63938846435548,110.9827404980469 C90.63938846435548,120.02819049804685 97.22778846435546,128.76771049804688 98.14555846435547,129.99554049804686 C99.06471846435545,131.22199049804686 110.86347846435547,150.3767204980469 129.55104846435546,157.74509049804686 C145.08016846435544,163.86910049804686 148.24000846435547,162.65091049804687 151.6120684643555,162.34498049804688 C154.9827484643555,162.03906049804687 162.4889184643555,157.89806049804687 164.01991846435544,153.60547049804688 C165.5522984643555,149.31288049804687 165.5522984643555,145.63489049804687 165.09340846435543,144.86595049804686 C164.6331484643555,144.09838049804688 163.40807846435547,143.63950049804686 161.56838846435545,142.72034049804688 C159.7300884643555,141.80119049804688 150.69153846435546,137.3528804980469 149.00619846435546,136.73965049804687 C147.32085846435547,136.1264304980469 146.09577846435548,135.82050049804687 144.86932846435548,137.66019049804686 C143.64424846435548,139.49987049804687 140.12335846435548,143.63950049804686 139.04986846435548,144.86595049804686 C137.97775846435547,146.09378049804687 136.90564846435547,146.24674049804688 135.0659584643555,145.32759049804687 C133.2276584643555,144.40568049804688 127.30622846435546,142.46679049804686 120.28236846435547,136.20360049804688 C114.81706846435549,131.3308604980469 111.12805846435546,125.31297049804687 110.05456846435547,123.47328049804688 C108.98245846435549,121.63360049804686 109.94018846435546,120.63866049804687 110.86209846435548,119.72226049804686 C111.68753846435547,118.89819049804686 112.70039846435549,117.57528049804688 113.62092846435547,116.50179049804689 C114.53732846435548,115.4283004980469 114.84462846435548,114.66211049804687 115.45647846435548,113.43703049804688 C116.06970846435547,112.20920049804687 115.76377846435548,111.13571049804688 115.30351846435548,110.21655049804687 C114.84462846435548,109.29740049804687 111.27137846435545,100.20511049804688 109.63701846435546,96.56984049804686 " stroke-width="0.352777" fill-rule="evenodd" transform="rotate(-2.29488 128 128)" />
    </g>
  </g>
</svg>
